<svg width="287" height="79" viewBox="0 0 287 79" fill="none" xmlns="http://www.w3.org/2000/svg">
<g opacity="0.1">
<path opacity="0.1" d="M173.77 59H286.24" stroke="#20263C" stroke-miterlimit="10" stroke-dasharray="5.77 5.77"/>
</g>
<path d="M81 1H1V78H81V1Z" fill="black"/>
<path opacity="0.1" d="M81 76.1769V77.9939H79.1122" stroke="#20263C" stroke-miterlimit="10"/>
<path opacity="0.1" d="M75.4812 77.9939H4.70015" stroke="#20263C" stroke-miterlimit="10" stroke-dasharray="5.77 5.77"/>
<path opacity="0.1" d="M2.88783 77.9939H1V76.1769" stroke="#20263C" stroke-miterlimit="10"/>
<path opacity="0.1" d="M1 72.6821V4.56133" stroke="#20263C" stroke-miterlimit="10" stroke-dasharray="5.77 5.77"/>
<path opacity="0.1" d="M1 2.81704V1H2.88783" stroke="#20263C" stroke-miterlimit="10"/>
<path opacity="0.1" d="M79.1122 1H81V2.81704" stroke="#20263C" stroke-miterlimit="10"/>
<path opacity="0.1" d="M81 6.30576V74.4325" stroke="#20263C" stroke-miterlimit="10" stroke-dasharray="5.77 5.77"/>
<path d="M30.7648 26.8746L33.2819 28.0859C33.7452 28.2807 34.2494 28.3685 34.7542 28.3422C35.259 28.3159 35.7504 28.1763 36.1892 27.9345L38.5679 26.4445C38.9772 26.1586 39.3103 25.7834 39.54 25.3496C39.7697 24.9159 39.8894 24.436 39.8893 23.9491L39.7384 21.2175C39.6832 20.7346 39.5111 20.2708 39.2356 19.8637C38.9601 19.4566 38.5892 19.1174 38.1525 18.8735L35.6354 17.6319C35.173 17.4348 34.6688 17.3453 34.1638 17.3705C33.6587 17.3958 33.1669 17.5351 32.7281 17.7773L30.3495 19.2672C29.941 19.5539 29.6083 19.9292 29.3788 20.3628C29.1491 20.7964 29.0289 21.276 29.028 21.7626L29.179 24.4942C29.2279 24.9837 29.3973 25.455 29.673 25.8689C29.9488 26.2829 30.3231 26.6276 30.7648 26.8746Z" fill="white"/>
<path d="M45.9492 30.4118L43.4321 29.1701C42.9699 28.9754 42.4667 28.8877 41.9629 28.914C41.4591 28.9403 40.9688 29.0799 40.5311 29.3216L38.1273 30.8115C37.7202 31.0995 37.3886 31.4752 37.1592 31.9085C36.9298 32.3417 36.8087 32.8206 36.8058 33.3069L36.9569 36.0385C37.012 36.5215 37.1841 36.9853 37.4596 37.3924C37.7351 37.7996 38.106 38.1387 38.5426 38.3825L41.0597 39.5939C41.5211 39.7909 42.0242 39.8805 42.5283 39.8552C43.0324 39.83 43.5231 39.6906 43.9607 39.4485L46.3456 37.9585C46.7529 37.6693 47.0844 37.2925 47.3138 36.8583C47.5432 36.4241 47.6642 35.9442 47.6671 35.4571L47.5161 32.7315C47.4584 32.2548 47.2869 31.7973 47.0151 31.3949C46.7433 30.9925 46.3785 30.6561 45.9492 30.4118Z" fill="white"/>
<path d="M53.7145 41.9319L51.1974 40.7205C50.735 40.5234 50.2309 40.4338 49.7258 40.4591C49.2207 40.4843 48.7289 40.6237 48.2902 40.8659L45.9116 42.3558C45.5037 42.6431 45.1716 43.0186 44.9421 43.4521C44.7125 43.8855 44.592 44.3648 44.59 44.8512L44.7411 47.5828C44.8013 48.058 44.9746 48.5134 45.2475 48.9136C45.5203 49.3138 45.8854 49.6481 46.3143 49.8905L48.8314 51.1018C49.2947 51.2966 49.7989 51.3843 50.3037 51.358C50.8085 51.3318 51.2999 51.1921 51.7387 50.9504L54.1236 49.4605C54.531 49.1731 54.8624 48.7975 55.0909 48.3639C55.3194 47.9304 55.4386 47.4512 55.4388 46.9651L55.3066 44.2819C55.2523 43.7972 55.0798 43.3316 54.8031 42.9232C54.5265 42.5149 54.1535 42.1752 53.7145 41.9319Z" fill="white"/>
<path d="M35.1697 35.1481L35.0502 33.0222C35.0531 32.5359 35.1741 32.057 35.4036 31.6237C35.633 31.1904 35.9645 30.8148 36.3717 30.5268L41.0094 27.6256C41.447 27.3839 41.9374 27.2443 42.4412 27.218C42.945 27.1918 43.4482 27.2795 43.9104 27.4742L45.8863 28.4433C46.3488 28.6404 46.8529 28.7299 47.358 28.7047C47.8631 28.6794 48.3549 28.5401 48.7936 28.2979L51.1723 26.8019C51.5805 26.5149 51.9128 26.1395 52.1424 25.706C52.3719 25.2725 52.4923 24.7931 52.4937 24.3065L52.3427 21.5809C52.2886 21.0969 52.1168 20.6319 51.8413 20.2237C51.5658 19.8154 51.1943 19.4753 50.7569 19.2309L48.2398 17.9892C47.7766 17.7945 47.2724 17.7068 46.7675 17.733C46.2627 17.7593 45.7713 17.8989 45.3326 18.1407L42.9036 19.6064C42.4961 19.8937 42.1647 20.2694 41.9362 20.7029C41.7077 21.1365 41.5886 21.6157 41.5884 22.1018L41.7016 24.2277C41.7015 24.7139 41.5822 25.1931 41.3537 25.6267C41.1252 26.0602 40.7938 26.4359 40.3865 26.7231L35.7487 29.6243C35.3099 29.8665 34.8182 30.0059 34.3131 30.0311C33.808 30.0564 33.3039 29.9668 32.8414 29.7697L30.8718 28.8067C30.4093 28.6096 29.9052 28.5201 29.4001 28.5453C28.895 28.5706 28.4033 28.7099 27.9645 28.952L25.5859 30.442C25.1773 30.7287 24.8447 31.104 24.6151 31.5376C24.3854 31.9712 24.2653 32.4508 24.2644 32.9374L24.4154 35.669C24.469 36.1532 24.6406 36.6184 24.9161 37.0267C25.1917 37.4351 25.5634 37.775 26.0012 38.0191L28.5183 39.2304C28.9816 39.4252 29.4857 39.513 29.9905 39.4867C30.4953 39.4604 30.9868 39.3208 31.4255 39.079L33.8042 37.589C34.213 37.312 34.5491 36.9473 34.7861 36.5236C35.0231 36.1 35.1545 35.6291 35.1697 35.1481Z" fill="white"/>
<path d="M60.0829 33.1011C60.0268 32.6175 59.8543 32.1533 59.579 31.7454C59.3037 31.3374 58.9332 30.9969 58.4971 30.751L55.98 29.5397C55.5166 29.3454 55.0124 29.2578 54.5077 29.2841C54.003 29.3104 53.5116 29.4498 53.0727 29.6911L50.694 31.181C50.2862 31.4684 49.9542 31.8438 49.7246 32.2773C49.4951 32.7107 49.3745 33.19 49.3726 33.6764L49.4922 35.8084C49.4902 36.2949 49.3696 36.7741 49.1401 37.2076C48.9106 37.641 48.5785 38.0165 48.1706 38.3038L43.5391 41.199C43.1004 41.4407 42.609 41.5803 42.1042 41.6066C41.5994 41.6329 41.0952 41.5451 40.6319 41.3504L38.6559 40.3813C38.1937 40.1866 37.6906 40.0988 37.1868 40.1251C36.683 40.1515 36.1926 40.291 35.755 40.5327L33.3511 42.0166C32.9441 42.3046 32.6126 42.6802 32.3831 43.1135C32.1536 43.5468 32.0326 44.0257 32.0297 44.512L32.1807 47.2436C32.2358 47.7266 32.408 48.1903 32.6834 48.5975C32.9589 49.0046 33.3299 49.3438 33.7665 49.5876L36.2836 50.8293C36.745 51.0263 37.2481 51.1158 37.7521 51.0906C38.2562 51.0653 38.7469 50.9259 39.1846 50.6839L41.5695 49.1939C41.9763 48.9056 42.3076 48.5299 42.5369 48.0967C42.7664 47.6635 42.8876 47.1847 42.891 46.6986L42.7715 44.5665C42.7729 44.08 42.8932 43.6006 43.1228 43.1671C43.3524 42.7335 43.6847 42.3581 44.0929 42.0711L48.7244 39.17C49.1631 38.9278 49.6549 38.7884 50.16 38.7632C50.6651 38.7379 51.1692 38.8274 51.6316 39.0245L53.6013 39.9876C54.0637 40.1847 54.5679 40.2742 55.073 40.249C55.578 40.2237 56.0698 40.0844 56.5085 39.8423L58.8936 38.3523C59.3006 38.0646 59.6317 37.6889 59.8601 37.2555C60.0886 36.822 60.208 36.3429 60.2087 35.8569L60.0829 33.1011Z" fill="white"/>
<path d="M76.1136 47L69.6591 23.7273H73.3523L77.8864 41.75H78.1023L82.8182 23.7273H86.4773L91.1932 41.7614H91.4091L95.9318 23.7273H99.6364L93.1705 47H89.6364L84.7386 29.5682H84.5568L79.6591 47H76.1136ZM108.369 47.3523C106.65 47.3523 105.169 46.9848 103.926 46.25C102.691 45.5076 101.737 44.4659 101.062 43.125C100.396 41.7765 100.062 40.197 100.062 38.3864C100.062 36.5985 100.396 35.0227 101.062 33.6591C101.737 32.2955 102.676 31.2311 103.881 30.4659C105.093 29.7008 106.509 29.3182 108.131 29.3182C109.116 29.3182 110.07 29.4811 110.994 29.8068C111.919 30.1326 112.748 30.6439 113.483 31.3409C114.218 32.0379 114.797 32.9432 115.222 34.0568C115.646 35.1629 115.858 36.5076 115.858 38.0909V39.2955H101.983V36.75H112.528C112.528 35.8561 112.347 35.0644 111.983 34.375C111.619 33.678 111.108 33.1288 110.449 32.7273C109.797 32.3258 109.032 32.125 108.153 32.125C107.199 32.125 106.366 32.3598 105.653 32.8295C104.949 33.2917 104.403 33.8977 104.017 34.6477C103.638 35.3902 103.449 36.197 103.449 37.0682V39.0568C103.449 40.2235 103.653 41.2159 104.062 42.0341C104.479 42.8523 105.059 43.4773 105.801 43.9091C106.544 44.3333 107.411 44.5455 108.403 44.5455C109.047 44.5455 109.634 44.4545 110.165 44.2727C110.695 44.0833 111.153 43.803 111.54 43.4318C111.926 43.0606 112.222 42.6023 112.426 42.0568L115.642 42.6364C115.384 43.5833 114.922 44.4129 114.256 45.125C113.597 45.8295 112.767 46.3788 111.767 46.7727C110.775 47.1591 109.642 47.3523 108.369 47.3523ZM119.901 47V23.7273H123.298V32.375H123.503C123.7 32.0114 123.984 31.5909 124.355 31.1136C124.726 30.6364 125.241 30.2197 125.901 29.8636C126.56 29.5 127.431 29.3182 128.514 29.3182C129.923 29.3182 131.181 29.6742 132.287 30.3864C133.393 31.0985 134.26 32.125 134.889 33.4659C135.526 34.8068 135.844 36.4205 135.844 38.3068C135.844 40.1932 135.529 41.8106 134.901 43.1591C134.272 44.5 133.408 45.5341 132.31 46.2614C131.211 46.9811 129.957 47.3409 128.548 47.3409C127.488 47.3409 126.62 47.1629 125.946 46.8068C125.279 46.4508 124.757 46.0341 124.378 45.5568C123.999 45.0795 123.707 44.6553 123.503 44.2841H123.219V47H119.901ZM123.23 38.2727C123.23 39.5 123.408 40.5758 123.764 41.5C124.12 42.4242 124.635 43.1477 125.31 43.6705C125.984 44.1856 126.81 44.4432 127.787 44.4432C128.802 44.4432 129.651 44.1742 130.332 43.6364C131.014 43.0909 131.529 42.3523 131.878 41.4205C132.234 40.4886 132.412 39.4394 132.412 38.2727C132.412 37.1212 132.238 36.0871 131.889 35.1705C131.548 34.2538 131.033 33.5303 130.344 33C129.662 32.4697 128.81 32.2045 127.787 32.2045C126.802 32.2045 125.969 32.4583 125.287 32.9659C124.613 33.4735 124.101 34.1818 123.753 35.0909C123.404 36 123.23 37.0606 123.23 38.2727ZM159.261 31.2955H155.716C155.58 30.5379 155.326 29.8712 154.955 29.2955C154.583 28.7197 154.129 28.2311 153.591 27.8295C153.053 27.428 152.451 27.125 151.784 26.9205C151.125 26.7159 150.424 26.6136 149.682 26.6136C148.341 26.6136 147.14 26.9508 146.08 27.625C145.027 28.2992 144.193 29.2879 143.58 30.5909C142.973 31.8939 142.67 33.4848 142.67 35.3636C142.67 37.2576 142.973 38.8561 143.58 40.1591C144.193 41.4621 145.03 42.447 146.091 43.1136C147.152 43.7803 148.345 44.1136 149.67 44.1136C150.405 44.1136 151.102 44.0152 151.761 43.8182C152.428 43.6136 153.03 43.3144 153.568 42.9205C154.106 42.5265 154.561 42.0455 154.932 41.4773C155.311 40.9015 155.572 40.2424 155.716 39.5L159.261 39.5114C159.072 40.6553 158.705 41.7083 158.159 42.6705C157.621 43.625 156.928 44.4508 156.08 45.1477C155.239 45.8371 154.277 46.3712 153.193 46.75C152.11 47.1288 150.928 47.3182 149.648 47.3182C147.633 47.3182 145.837 46.8409 144.261 45.8864C142.686 44.9242 141.443 43.5492 140.534 41.7614C139.633 39.9735 139.182 37.8409 139.182 35.3636C139.182 32.8788 139.636 30.7462 140.545 28.9659C141.455 27.178 142.697 25.8068 144.273 24.8523C145.848 23.8902 147.64 23.4091 149.648 23.4091C150.883 23.4091 152.034 23.5871 153.102 23.9432C154.178 24.2917 155.144 24.8068 156 25.4886C156.856 26.1629 157.564 26.9886 158.125 27.9659C158.686 28.9356 159.064 30.0455 159.261 31.2955ZM168.27 47.3864C167.164 47.3864 166.164 47.1818 165.27 46.7727C164.376 46.3561 163.668 45.7538 163.145 44.9659C162.63 44.178 162.372 43.2121 162.372 42.0682C162.372 41.0833 162.562 40.2727 162.94 39.6364C163.319 39 163.83 38.4962 164.474 38.125C165.118 37.7538 165.838 37.4735 166.634 37.2841C167.429 37.0947 168.24 36.9508 169.065 36.8523C170.111 36.7311 170.959 36.6326 171.611 36.5568C172.262 36.4735 172.736 36.3409 173.031 36.1591C173.327 35.9773 173.474 35.6818 173.474 35.2727V35.1932C173.474 34.2008 173.194 33.4318 172.634 32.8864C172.08 32.3409 171.255 32.0682 170.156 32.0682C169.012 32.0682 168.111 32.322 167.452 32.8295C166.8 33.3295 166.349 33.8864 166.099 34.5L162.906 33.7727C163.285 32.7121 163.838 31.8561 164.565 31.2045C165.3 30.5455 166.145 30.0682 167.099 29.7727C168.054 29.4697 169.058 29.3182 170.111 29.3182C170.808 29.3182 171.546 29.4015 172.327 29.5682C173.115 29.7273 173.849 30.0227 174.531 30.4545C175.221 30.8864 175.785 31.5038 176.224 32.3068C176.664 33.1023 176.884 34.1364 176.884 35.4091V47H173.565V44.6136H173.429C173.209 45.053 172.88 45.4848 172.44 45.9091C172.001 46.3333 171.437 46.6856 170.747 46.9659C170.058 47.2462 169.232 47.3864 168.27 47.3864ZM169.009 44.6591C169.948 44.6591 170.751 44.4735 171.418 44.1023C172.092 43.7311 172.603 43.2462 172.952 42.6477C173.308 42.0417 173.486 41.3939 173.486 40.7045V38.4545C173.365 38.5758 173.13 38.6894 172.781 38.7955C172.44 38.8939 172.05 38.9811 171.611 39.0568C171.171 39.125 170.743 39.1894 170.327 39.25C169.91 39.303 169.562 39.3485 169.281 39.3864C168.622 39.4697 168.02 39.6098 167.474 39.8068C166.937 40.0038 166.505 40.2879 166.179 40.6591C165.861 41.0227 165.702 41.5076 165.702 42.1136C165.702 42.9545 166.012 43.5909 166.634 44.0227C167.255 44.447 168.046 44.6591 169.009 44.6591ZM184.807 36.6364V47H181.409V29.5455H184.67V32.3864H184.886C185.288 31.4621 185.917 30.7197 186.773 30.1591C187.636 29.5985 188.723 29.3182 190.034 29.3182C191.223 29.3182 192.265 29.5682 193.159 30.0682C194.053 30.5606 194.746 31.2955 195.239 32.2727C195.731 33.25 195.977 34.4583 195.977 35.8977V47H192.58V36.3068C192.58 35.0417 192.25 34.053 191.591 33.3409C190.932 32.6212 190.027 32.2614 188.875 32.2614C188.087 32.2614 187.386 32.4318 186.773 32.7727C186.167 33.1136 185.686 33.6136 185.33 34.2727C184.981 34.9242 184.807 35.7121 184.807 36.6364ZM214.841 29.5455L208.511 47H204.875L198.534 29.5455H202.182L206.602 42.9773H206.784L211.193 29.5455H214.841ZM222.614 47.3864C221.508 47.3864 220.508 47.1818 219.614 46.7727C218.72 46.3561 218.011 45.7538 217.489 44.9659C216.973 44.178 216.716 43.2121 216.716 42.0682C216.716 41.0833 216.905 40.2727 217.284 39.6364C217.663 39 218.174 38.4962 218.818 38.125C219.462 37.7538 220.182 37.4735 220.977 37.2841C221.773 37.0947 222.583 36.9508 223.409 36.8523C224.455 36.7311 225.303 36.6326 225.955 36.5568C226.606 36.4735 227.08 36.3409 227.375 36.1591C227.67 35.9773 227.818 35.6818 227.818 35.2727V35.1932C227.818 34.2008 227.538 33.4318 226.977 32.8864C226.424 32.3409 225.598 32.0682 224.5 32.0682C223.356 32.0682 222.455 32.322 221.795 32.8295C221.144 33.3295 220.693 33.8864 220.443 34.5L217.25 33.7727C217.629 32.7121 218.182 31.8561 218.909 31.2045C219.644 30.5455 220.489 30.0682 221.443 29.7727C222.398 29.4697 223.402 29.3182 224.455 29.3182C225.152 29.3182 225.89 29.4015 226.67 29.5682C227.458 29.7273 228.193 30.0227 228.875 30.4545C229.564 30.8864 230.129 31.5038 230.568 32.3068C231.008 33.1023 231.227 34.1364 231.227 35.4091V47H227.909V44.6136H227.773C227.553 45.053 227.223 45.4848 226.784 45.9091C226.345 46.3333 225.78 46.6856 225.091 46.9659C224.402 47.2462 223.576 47.3864 222.614 47.3864ZM223.352 44.6591C224.292 44.6591 225.095 44.4735 225.761 44.1023C226.436 43.7311 226.947 43.2462 227.295 42.6477C227.652 42.0417 227.83 41.3939 227.83 40.7045V38.4545C227.708 38.5758 227.473 38.6894 227.125 38.7955C226.784 38.8939 226.394 38.9811 225.955 39.0568C225.515 39.125 225.087 39.1894 224.67 39.25C224.254 39.303 223.905 39.3485 223.625 39.3864C222.966 39.4697 222.364 39.6098 221.818 39.8068C221.28 40.0038 220.848 40.2879 220.523 40.6591C220.205 41.0227 220.045 41.5076 220.045 42.1136C220.045 42.9545 220.356 43.5909 220.977 44.0227C221.598 44.447 222.39 44.6591 223.352 44.6591ZM248.832 33.8068L245.753 34.3523C245.624 33.9583 245.42 33.5833 245.139 33.2273C244.866 32.8712 244.495 32.5795 244.026 32.3523C243.556 32.125 242.969 32.0114 242.264 32.0114C241.302 32.0114 240.499 32.2273 239.855 32.6591C239.211 33.0833 238.889 33.6326 238.889 34.3068C238.889 34.8902 239.105 35.3598 239.537 35.7159C239.969 36.072 240.666 36.3636 241.628 36.5909L244.401 37.2273C246.007 37.5985 247.204 38.1705 247.991 38.9432C248.779 39.7159 249.173 40.7197 249.173 41.9545C249.173 43 248.87 43.9318 248.264 44.75C247.666 45.5606 246.829 46.197 245.753 46.6591C244.685 47.1212 243.446 47.3523 242.037 47.3523C240.082 47.3523 238.488 46.9356 237.253 46.1023C236.018 45.2614 235.26 44.0682 234.98 42.5227L238.264 42.0227C238.469 42.8788 238.889 43.5265 239.526 43.9659C240.162 44.3977 240.991 44.6136 242.014 44.6136C243.128 44.6136 244.018 44.3826 244.685 43.9205C245.351 43.4508 245.685 42.8788 245.685 42.2045C245.685 41.6591 245.48 41.2008 245.071 40.8295C244.67 40.4583 244.052 40.178 243.219 39.9886L240.264 39.3409C238.635 38.9697 237.431 38.3788 236.651 37.5682C235.878 36.7576 235.491 35.7311 235.491 34.4886C235.491 33.4583 235.779 32.5568 236.355 31.7841C236.931 31.0114 237.726 30.4091 238.741 29.9773C239.757 29.5379 240.92 29.3182 242.23 29.3182C244.116 29.3182 245.601 29.7273 246.685 30.5455C247.768 31.3561 248.484 32.4432 248.832 33.8068Z" fill="white"/>
</svg>
